<?xml version="1.0" encoding="UTF-8"?>
<svg width="900" height="700" xmlns="http://www.w3.org/2000/svg">
    <!-- Styles -->
    <style>
        .layer-box { fill: #f5f5f5; stroke: #2c3e50; stroke-width: 2; }
        .component-box { 
            fill: #ffffff; 
            stroke: #3498db; 
            stroke-width: 1.5; 
            rx: 8; 
            ry: 8;
            filter: drop-shadow(0 2px 3px rgba(0,0,0,0.1));
        }
        .arrow { 
            stroke: #7f8c8d; 
            stroke-width: 1.5; 
            marker-end: url(#arrowhead);
        }
        .label { 
            font-family: 'Arial', sans-serif; 
            font-size: 16px; 
            fill: #34495e;
        }
        .layer-label { 
            font-family: 'Arial', sans-serif; 
            font-size: 20px; 
            font-weight: bold;
            fill: #2c3e50;
        }
    </style>

    <!-- Arrow Marker -->
    <defs>
        <marker id="arrowhead" markerWidth="10" markerHeight="7" refX="9" refY="3.5" orient="auto">
            <polygon points="0 0, 10 3.5, 0 7" fill="#7f8c8d"/>
        </marker>
    </defs>

    <!-- Presentation Layer -->
    <rect x="50" y="50" width="800" height="120" class="layer-box"/>
    <text x="70" y="90" class="layer-label">Presentation Layer</text>
    <rect x="120" y="100" width="180" height="50" class="component-box"/>
    <text x="165" y="130" class="label">Tkinter GUI</text>
    <rect x="360" y="100" width="180" height="50" class="component-box"/>
    <text x="395" y="130" class="label">UI Components</text>
    <rect x="600" y="100" width="180" height="50" class="component-box"/>
    <text x="665" y="130" class="label">Pages</text>

    <!-- Application Layer -->
    <rect x="50" y="220" width="800" height="120" class="layer-box"/>
    <text x="70" y="260" class="layer-label">Application Layer</text>
    <rect x="120" y="270" width="180" height="50" class="component-box"/>
    <text x="165" y="300" class="label">Authentication</text>
    <rect x="360" y="270" width="180" height="50" class="component-box"/>
    <text x="415" y="300" class="label">Navigation</text>
    <rect x="600" y="270" width="180" height="50" class="component-box"/>
    <text x="645" y="300" class="label">Error Handling</text>

    <!-- Service Layer -->
    <rect x="50" y="390" width="800" height="120" class="layer-box"/>
    <text x="70" y="430" class="layer-label">Service Layer</text>
    <rect x="120" y="440" width="180" height="50" class="component-box"/>
    <text x="145" y="470" class="label">User Management</text>
    <rect x="360" y="440" width="180" height="50" class="component-box"/>
    <text x="375" y="470" class="label">Donation Management</text>
    <rect x="600" y="440" width="180" height="50" class="component-box"/>
    <text x="645" y="470" class="label">Email Service</text>

    <!-- Data Layer -->
    <rect x="50" y="560" width="800" height="100" class="layer-box"/>
    <text x="70" y="600" class="layer-label">Data Layer</text>
    <rect x="250" y="590" width="400" height="50" class="component-box"/>
    <text x="390" y="620" class="label">MySQL Database</text>

    <!-- Arrows -->
    <!-- Presentation to Application -->
    <line x1="210" y1="150" x2="210" y2="270" class="arrow"/>
    <line x1="450" y1="150" x2="450" y2="270" class="arrow" transform="translate(-10,0)"/>
    <line x1="690" y1="150" x2="690" y2="270" class="arrow" transform="translate(10,0)"/>

    <!-- Application to Service -->
    <line x1="210" y1="320" x2="210" y2="440" class="arrow"/>
    <line x1="450" y1="320" x2="450" y2="440" class="arrow"/>
    <line x1="690" y1="320" x2="690" y2="440" class="arrow"/>

    <!-- Service to Data -->
    <line x1="210" y1="490" x2="350" y2="590" class="arrow"/>
    <line x1="450" y1="490" x2="450" y2="590" class="arrow"/>
    <line x1="690" y1="490" x2="550" y2="590" class="arrow"/>
</svg>